<?xml version="1.0" encoding="utf-8"?>
<!-- Generator: Adobe Illustrator 18.0.0, SVG Export Plug-In . SVG Version: 6.00 Build 0)  -->
<!DOCTYPE svg PUBLIC "-//W3C//DTD SVG 1.1//EN" "http://www.w3.org/Graphics/SVG/1.1/DTD/svg11.dtd">
<svg version="1.1" id="Layer_1" xmlns="http://www.w3.org/2000/svg" xmlns:xlink="http://www.w3.org/1999/xlink" x="0px" y="0px"
	 viewBox="0 0 612 792" enable-background="new 0 0 612 792" xml:space="preserve">
<path fill="#BEBEBE" d="M393,638.2c114.8-11.9,170.2-47.5,193.9-106.9l7.9-23.7c7.9-31.7,11.9-67.3,11.9-106.9
	c0-55.4-19.8-102.9-55.4-134.6c7.9-19.8,15.8-63.3-7.9-118.7c0,0-39.6-11.9-126.7,47.5C381.1,187,345.5,183,309.8,183
	c-39.6,0-79.2,4-118.7,15.8c-91-63.3-130.6-51.5-130.6-51.5c-27.7,67.3-11.9,114.8-7.9,126.7C24.9,305.7,5.1,349.3,5.1,400.7
	c0,39.6,4,75.2,15.8,102.9l11.9,27.7c31.7,55.4,91,95,197.9,106.9"/>
</svg>
