<?xml version="1.0" encoding="utf-8"?>
<!-- Generator: Adobe Illustrator 18.0.0, SVG Export Plug-In . SVG Version: 6.00 Build 0)  -->
<!DOCTYPE svg PUBLIC "-//W3C//DTD SVG 1.1//EN" "http://www.w3.org/Graphics/SVG/1.1/DTD/svg11.dtd">
<svg version="1.1" id="Layer_1" xmlns="http://www.w3.org/2000/svg" xmlns:xlink="http://www.w3.org/1999/xlink" x="0px" y="0px"
	 viewBox="0 0 16 16" enable-background="new 0 0 16 16" xml:space="preserve">
<g>
	<path fill="#BEBEBE" d="M0.4,11.2c0,0,0.9,2.5,3.2,2.1c0,0,0.3,2.2,3,2.5C6.6,15.9,7.3,9.2,0.4,11.2z"/>
	<path fill="#BEBEBE" d="M13.1,7.5c0.1-0.2,0.3-0.4,0.4-0.6L7.2,2.7C7,2.9,6.8,3.1,6.7,3.3L13.1,7.5z"/>
	<path fill="#BEBEBE" d="M11.7,9c0.2-0.2,0.4-0.3,0.5-0.5L5.9,4.3C5.7,4.5,5.6,4.7,5.5,4.9L11.7,9z"/>
	<path fill="#BEBEBE" d="M10.1,10.2c0.2-0.1,0.5-0.3,0.7-0.4L5.1,6.1C5,6.3,4.9,6.5,4.9,6.8L10.1,10.2z"/>
	<path fill="#BEBEBE" d="M8,11.4c0.3-0.1,0.6-0.2,0.8-0.4L4.4,8.1C4.4,8.4,4.3,8.6,4.3,8.9L8,11.4z"/>
	
		<rect x="7.9" y="1.8" transform="matrix(-0.7929 -0.6094 0.6094 -0.7929 10.4133 18.4348)" fill="#BEBEBE" width="0.8" height="11.4"/>
	<path fill="#BEBEBE" d="M14.1,0.2L14.1,0.2C14,0.1,10.3-0.7,7.7,2c1-0.4,2.6,0,4.1,1.1c1.2,0.9,2,2.1,2.2,3.1
		C15.5,3.2,14.1,0.2,14.1,0.2z M11.9,2.7c-0.5,0-0.9-0.3-1-0.8c0-0.1,0-0.1,0-0.2c0-0.1,0-0.1,0-0.2c0.1-0.5,0.5-0.9,1-0.9
		c0.6,0,1,0.5,1,1C12.9,2.2,12.4,2.7,11.9,2.7z"/>
</g>
</svg>
